<?xml version="1.0" encoding="iso-8859-1"?>
<!-- Generator: Adobe Illustrator 19.0.0, SVG Export Plug-In . SVG Version: 6.00 Build 0)  -->
<svg version="1.1" id="Capa_1" xmlns="http://www.w3.org/2000/svg" xmlns:xlink="http://www.w3.org/1999/xlink" x="0px" y="0px"
	 viewBox="0 0 512.001 512.001" style="enable-background:new 0 0 512.001 512.001;" xml:space="preserve">
<g>
	<g>
		<path d="M325.023,0H25.296C19.008,0,13.34,3.788,10.933,9.597s-1.077,12.495,3.37,16.941l75.119,75.119
			c2.915,2.915,6.869,4.554,10.992,4.554h181.601V94.573h-0.001C282.014,56.901,298.681,23.052,325.023,0z"/>
	</g>
</g>
<g>
	<g>
		<path d="M282.014,115.398l-163.449,163.38c-20.631,20.624-20.701,54.251-0.152,74.958c10.018,10.096,23.368,15.672,37.591,15.699
			c0.035,0,0.07,0,0.107,0c14.183,0,27.513-5.521,37.545-15.553l88.36-88.36V115.398H282.014z"/>
	</g>
</g>
<g>
	<g>
		<path d="M407.68,0c-52.147,0-94.573,42.425-94.573,94.573v322.856c0,52.147,42.426,94.573,94.573,94.573
			s94.573-42.425,94.573-94.573V94.573C502.252,42.425,459.827,0,407.68,0z M437.217,121.463h-13.991v13.991
			c0,8.586-6.961,15.546-15.546,15.546c-8.586,0-15.546-6.961-15.546-15.546v-13.991h-13.99c-8.586,0-15.546-6.961-15.546-15.546
			c0-8.586,6.961-15.546,15.546-15.546h13.99V76.38c0-8.586,6.961-15.546,15.546-15.546c8.586,0,15.546,6.961,15.546,15.546v13.991
			h13.991c8.586,0,15.546,6.961,15.546,15.546C452.763,114.503,445.802,121.463,437.217,121.463z"/>
	</g>
</g>
<g>
</g>
<g>
</g>
<g>
</g>
<g>
</g>
<g>
</g>
<g>
</g>
<g>
</g>
<g>
</g>
<g>
</g>
<g>
</g>
<g>
</g>
<g>
</g>
<g>
</g>
<g>
</g>
<g>
</g>
</svg>
